#N canvas 512 300 450 376 10;
#X obj 59 36 inlet;
#X obj 52 335 outlet~;
#X obj -17 106 phasor~;
#X obj 146 110 phasor~;
#X obj 128 146 *~ 2;
#X obj 205 145 *~ -2;
#X obj 127 177 +~ -1;
#X obj 206 177 +~ 1;
#X obj 126 208 clip~ 0 1;
#X obj 205 208 clip~ 0 1;
#X obj 145 239 +~;
#X obj 144 280 hip~ 5;
#X connect 0 0 3 0;
#X connect 3 0 4 0;
#X connect 3 0 5 0;
#X connect 4 0 6 0;
#X connect 5 0 7 0;
#X connect 6 0 8 0;
#X connect 7 0 9 0;
#X connect 8 0 10 0;
#X connect 9 0 10 0;
#X connect 10 0 11 0;
#X connect 11 0 1 0;
