#N canvas 659 254 906 720 10;
#X obj 107 6 inlet;
#X obj 73 505 outlet~;
#X obj -17 106 phasor~;
#X obj 159 105 phasor~;
#X obj 141 141 *~ 2;
#X obj 218 140 *~ -2;
#X obj 140 172 +~ -1;
#X obj 219 172 +~ 1;
#X obj 139 203 clip~ 0 1;
#X obj 218 203 clip~ 0 1;
#X obj 158 234 +~;
#X obj 157 275 hip~ 5;
#X text 35 83 ノコギリ波;
#X text 211 83 三角波;
#X obj -17 141 hip~ 5;
#X connect 0 0 2 0;
#X connect 2 0 14 0;
#X connect 3 0 4 0;
#X connect 3 0 5 0;
#X connect 4 0 6 0;
#X connect 5 0 7 0;
#X connect 6 0 8 0;
#X connect 7 0 9 0;
#X connect 8 0 10 0;
#X connect 9 0 10 0;
#X connect 10 0 11 0;
#X connect 14 0 1 0;
